<?xml version="1.0" standalone="no"?>
<!DOCTYPE svg PUBLIC "-//W3C//DTD SVG 20010904//EN"
 "http://www.w3.org/TR/2001/REC-SVG-20010904/DTD/svg10.dtd">
<svg version="1.0" xmlns="http://www.w3.org/2000/svg"
 width="577.000000pt" height="433.000000pt" viewBox="0 0 577.000000 433.000000"
 preserveAspectRatio="xMidYMid meet">

<g transform="translate(0.000000,433.000000) scale(0.100000,-0.100000)"
fill="#000000" stroke="none">
<path d="M2466 3688 c-47 -21 -50 -21 -78 -5 -47 27 -52 20 -24 -29 30 -54 32
-64 11 -64 -20 0 -30 -46 -15 -65 11 -14 15 -12 31 14 25 42 32 43 98 26 32
-8 79 -15 104 -15 48 0 57 -9 57 -58 0 -21 2 -24 10 -12 5 8 10 42 10 75 0 73
-25 120 -75 141 -46 19 -71 17 -129 -8z"/>
<path d="M2478 3533 c6 -2 18 -2 25 0 6 3 1 5 -13 5 -14 0 -19 -2 -12 -5z"/>
<path d="M2580 3525 c0 -2 10 -10 23 -16 20 -11 21 -11 8 4 -13 16 -31 23 -31
12z"/>
<path d="M2476 3481 c-4 -5 -2 -12 3 -15 5 -4 12 -2 15 3 4 5 2 12 -3 15 -5 4
-12 2 -15 -3z"/>
<path d="M2241 3455 c-27 -23 -31 -24 -39 -9 -9 16 -11 15 -21 -4 -16 -30 3
-57 58 -84 l44 -21 19 22 c22 28 23 53 3 91 -19 36 -25 37 -64 5z"/>
<path d="M2580 3455 c0 -8 5 -15 10 -15 6 0 10 7 10 15 0 8 -4 15 -10 15 -5 0
-10 -7 -10 -15z"/>
<path d="M2580 3400 c0 -5 5 -10 10 -10 6 0 10 5 10 10 0 6 -4 10 -10 10 -5 0
-10 -4 -10 -10z"/>
<path d="M2629 3340 l-16 -60 25 -7 c53 -13 74 28 48 91 -22 52 -39 45 -57
-24z"/>
<path d="M2492 3360 c7 -23 36 -36 50 -22 14 14 11 18 -26 28 -21 5 -28 4 -24
-6z"/>
<path d="M2250 3298 c0 -21 -9 -42 -27 -61 l-28 -28 28 10 c16 6 30 11 33 11
11 0 2 -55 -15 -93 -20 -43 -61 -90 -61 -69 0 18 -35 14 -53 -6 -23 -25 -45
-93 -52 -155 -5 -49 -4 -48 15 23 11 41 27 80 35 86 8 6 15 17 15 24 0 16 60
5 72 -13 6 -9 8 -9 8 2 0 8 11 28 24 45 42 56 56 94 56 150 0 65 -14 106 -35
106 -10 0 -15 -10 -15 -32z"/>
<path d="M2490 3275 c-7 -8 -10 -24 -7 -35 3 -11 -6 -90 -20 -176 l-26 -157
24 -17 c18 -14 28 -16 46 -7 l23 10 -5 191 c-2 105 -4 194 -5 199 0 12 -17 8
-30 -8z"/>
<path d="M2632 3175 c-1 -44 3 -89 8 -100 5 -11 9 -16 9 -12 1 4 11 2 23 -4
22 -12 22 -12 5 14 -10 15 -17 47 -17 74 -1 26 -7 62 -15 78 -13 28 -13 26
-13 -50z"/>
<path d="M5370 3220 c-97 -18 -526 -93 -635 -111 -33 -6 -60 -11 -61 -12 -2
-1 41 -51 94 -111 l96 -109 -26 -21 c-14 -11 -104 -84 -199 -161 -333 -269
-735 -598 -810 -662 -9 -7 -51 -18 -95 -23 -104 -13 -139 -21 -126 -29 6 -4 5
-11 -4 -19 -12 -11 -14 -9 -14 8 0 13 -7 20 -20 20 -14 0 -18 -5 -13 -16 5
-13 8 -13 15 -2 8 10 9 10 6 -2 -3 -8 -22 -18 -43 -22 -22 -5 -47 -16 -57 -25
-17 -15 -18 -15 -13 -1 4 9 1 19 -6 24 -7 4 -10 3 -6 -3 4 -6 0 -14 -9 -17 -9
-3 -14 -13 -10 -21 3 -8 1 -17 -5 -20 -5 -4 -8 -1 -7 7 2 8 -5 12 -17 10 -20
-4 -20 -4 0 11 11 9 17 19 12 23 -4 4 -7 2 -7 -4 0 -7 -7 -12 -15 -12 -8 0
-15 -5 -15 -10 0 -7 -7 -7 -21 1 -20 10 -21 9 -16 -12 6 -22 5 -23 -8 -6 -17
23 -27 23 -36 0 -6 -15 -8 -14 -8 7 -1 14 -4 20 -9 14 -4 -6 -19 -10 -35 -8
-15 1 -25 -1 -22 -6 3 -4 -3 -7 -12 -5 -10 1 -25 -3 -33 -9 -13 -9 -13 -9 -3
5 19 23 3 32 -20 12 -11 -10 -17 -13 -14 -6 4 6 3 14 -3 18 -5 3 -10 1 -10 -6
0 -8 -5 -7 -17 2 -11 10 -14 10 -9 2 4 -7 2 -13 -3 -13 -6 0 -11 4 -11 9 0 5
-7 12 -16 15 -13 5 -14 4 -6 -7 9 -10 8 -14 -3 -14 -8 0 -15 4 -15 8 0 3 -9 9
-20 12 -11 3 -18 2 -15 -3 3 -4 -2 -10 -10 -14 -8 -3 -17 -1 -20 4 -3 5 -27 8
-53 6 -130 -10 -208 -20 -217 -30 -6 -6 -77 -86 -158 -178 -82 -93 -151 -168
-154 -168 -4 0 3 10 15 23 19 21 22 34 22 119 0 103 -5 128 -25 128 -7 0 -19
10 -27 22 l-15 23 -57 -18 -56 -18 0 -225 0 -224 -96 -110 c-84 -96 -101 -110
-128 -110 -17 0 -204 -11 -415 -25 -373 -24 -385 -25 -410 -48 -26 -24 -248
-214 -373 -321 l-70 -58 -216 16 c-119 9 -241 19 -269 22 l-53 6 0 -91 c0 -84
2 -91 20 -91 11 0 149 -11 307 -25 159 -14 297 -24 308 -21 11 3 61 39 110 81
50 41 93 75 98 75 4 0 64 47 135 104 l127 104 3 -95 c1 -53 0 -98 -3 -101 -3
-3 -31 -7 -63 -8 -31 -1 -70 -2 -87 -4 -28 -2 -27 -3 10 -10 22 -4 67 -10 100
-13 59 -6 61 -5 170 56 l110 62 3 83 3 82 92 0 c106 0 460 19 496 26 14 3 39
22 58 42 l33 36 0 -232 c0 -128 3 -232 6 -232 4 0 47 30 95 66 l89 66 0 280 0
279 102 116 c57 63 143 161 192 217 49 55 94 104 100 107 6 4 88 14 181 23 94
9 187 20 208 23 l37 6 0 -589 c0 -324 -3 -606 -7 -627 -6 -37 -7 -39 -39 -35
-19 2 -34 0 -34 -4 0 -4 20 -8 44 -8 42 0 46 3 101 70 l56 71 -2 465 c-2 409
-4 464 -17 459 -12 -4 -13 -3 -2 10 7 8 10 22 6 30 -3 8 -1 26 4 40 6 15 6 26
-1 30 -5 4 -7 10 -4 15 3 5 1 12 -5 15 -8 5 -7 11 1 21 8 10 9 17 0 28 -17 20
41 30 361 60 l146 14 309 246 308 247 6 -93 5 -93 2 101 c2 86 5 104 21 115
10 8 118 94 240 192 121 97 227 177 233 176 7 0 51 -47 98 -105 80 -99 100
-117 100 -94 0 6 63 169 140 362 77 193 140 355 140 360 0 4 -3 7 -7 7 -5 -1
-51 -9 -103 -19z m-1846 -1298 c2 -4 -4 -8 -14 -8 -10 0 -16 4 -14 8 3 4 9 8
14 8 5 0 11 -4 14 -8z m-187 -58 c-3 -3 -12 -4 -19 -1 -8 3 -5 6 6 6 11 1 17
-2 13 -5z m-937 -337 c0 -2 -12 -14 -27 -28 l-28 -24 24 28 c23 25 31 32 31
24z"/>
<path d="M1979 3152 c-23 -25 -59 -91 -59 -108 0 -24 17 -15 30 16 7 17 16 30
21 30 14 0 11 -9 -12 -47 l-21 -34 23 -25 c27 -29 39 -31 39 -4 0 11 9 43 20
72 14 38 17 55 8 65 -9 11 -13 10 -24 -4 -11 -16 -12 -13 -7 20 6 41 5 43 -18
19z"/>
<path d="M2897 3113 c-9 -8 -9 -46 -1 -67 4 -9 17 -16 33 -15 l26 0 -24 10
c-19 8 -23 15 -19 44 4 34 -1 43 -15 28z"/>
<path d="M2235 2913 c-4 -21 -13 -56 -21 -78 -19 -55 -18 -60 13 -89 l27 -25
23 21 c22 21 23 21 44 2 12 -10 30 -37 39 -60 16 -37 21 -40 49 -36 35 5 36 2
31 -103 -2 -58 -18 -103 -46 -135 -16 -18 -46 -100 -37 -100 18 0 101 82 134
132 36 56 56 121 74 238 6 37 5 43 -6 33 -24 -24 -30 -13 -9 16 11 16 17 32
13 34 -5 2 -35 7 -68 11 -33 4 -73 9 -90 11 -16 3 -24 2 -17 -1 21 -10 3 -24
-31 -24 -39 0 -61 13 -55 31 3 9 -7 18 -26 25 -31 11 -31 11 -28 72 4 69 -4
83 -13 25z"/>
<path d="M2192 2880 c0 -14 2 -19 5 -12 2 6 2 18 0 25 -3 6 -5 1 -5 -13z"/>
<path d="M2177 2829 c-4 -14 -18 -43 -33 -64 -15 -22 -19 -33 -9 -25 22 18 57
88 52 103 -2 7 -7 0 -10 -14z"/>
<path d="M2040 2801 c16 -30 25 -32 26 -5 1 18 -3 24 -17 24 -16 0 -18 -3 -9
-19z"/>
<path d="M2030 2750 c0 -11 4 -20 9 -20 11 0 22 26 14 34 -12 12 -23 5 -23
-14z"/>
<path d="M2361 2525 c-7 -27 -26 -92 -42 -144 -20 -64 -26 -97 -19 -101 14 -8
-3 -56 -22 -63 -10 -4 -10 -6 0 -6 29 -2 50 38 76 141 18 71 26 125 24 165
l-3 58 -14 -50z"/>
<path d="M3282 2208 l-2 -228 28 0 c21 0 24 2 12 10 -12 8 -12 10 5 10 20 1
20 1 1 15 -10 8 -23 12 -27 9 -5 -3 -10 89 -12 203 l-2 208 -3 -227z"/>
<path d="M2192 2270 c-15 -25 -39 -26 -45 -2 -12 44 -5 -38 7 -89 27 -114 83
-175 152 -167 25 3 29 8 32 37 2 19 -1 37 -5 40 -5 3 -13 28 -19 56 -9 47 -11
50 -42 51 -43 2 -47 -12 -22 -71 16 -38 18 -50 8 -57 -23 -14 -37 -9 -53 22
-20 38 -19 58 5 105 12 23 16 43 11 49 -5 6 -10 19 -12 29 -4 16 -5 16 -17 -3z"/>
<path d="M1490 1394 c-36 -13 -84 -31 -107 -40 l-43 -16 0 -107 0 -108 58 4
c31 2 86 6 121 9 l64 6 -7 51 c-3 29 -6 91 -6 140 0 48 -3 87 -7 87 -5 -1 -37
-12 -73 -26z"/>
<path d="M4478 520 c-3 -69 -4 -126 -3 -128 2 -2 12 29 24 68 15 47 21 89 18
123 -3 45 -5 48 -12 27 l-9 -25 -6 30 c-4 17 -9 -25 -12 -95z"/>
<path d="M2698 533 c7 -3 16 -2 19 1 4 3 -2 6 -13 5 -11 0 -14 -3 -6 -6z"/>
<path d="M2826 529 c3 -5 17 -9 31 -9 32 0 24 11 -11 14 -14 2 -23 -1 -20 -5z"/>
<path d="M2918 523 c7 -3 16 -2 19 1 4 3 -2 6 -13 5 -11 0 -14 -3 -6 -6z"/>
<path d="M2968 513 c12 -2 32 -2 45 0 12 2 2 4 -23 4 -25 0 -35 -2 -22 -4z"/>
<path d="M3070 510 c17 -11 47 -14 36 -3 -3 4 -17 8 -29 10 -17 2 -19 1 -7 -7z"/>
<path d="M3133 503 c9 -2 25 -2 35 0 9 3 1 5 -18 5 -19 0 -27 -2 -17 -5z"/>
</g>
</svg>
